<svg version="1.1" width="365" height="365" viewBox="0 0 365 365" xmlns="http://www.w3.org/2000/svg">
  <style type="text/css">
    .st0{fill:#FFFFFF;}
	  .st1{fill:#1877F2;}
  </style>
  <g transform="translate(-67.5,-67.5)">
    <path class="st0" d="m432.5 250c0-100.8-81.7-182.5-182.5-182.5s-182.5 81.7-182.5 182.5c0 91.1 66.7 166.6 154 180.3v-127.5h-46.3v-52.8h46.3v-40.2c0-45.7 27.2-71 68.9-71 20 0 40.9 3.6 40.9 3.6v44.9h-23c-22.7 0-29.7 14.1-29.7 28.5v34.2h50.6l-8.1 52.8h-42.5v127.5c87.2-13.7 153.9-89.2 153.9-180.3z"/>
    <path class="st1" d="m321 302.8 8.1-52.8h-50.6v-34.2c0-14.4 7.1-28.5 29.7-28.5h23v-44.9s-20.9-3.6-40.9-3.6c-41.7 0-68.9 25.3-68.9 71v40.2h-46.3v52.8h46.3v127.5c9.3 1.5 18.8 2.2 28.5 2.2s19.2-0.8 28.5-2.2v-127.5z"/>
  </g>
</svg>
