<svg version="1.1" width="307.5" height="364.93" viewBox="0 0 307.5 364.93" xmlns="http://www.w3.org/2000/svg" fill="#FFF">
  <g transform="translate(-96.4,-67.5)">
    <path d="m397.3 351.9c-5.5 12.8-12.1 24.5-19.6 35.3-10.3 14.7-18.8 24.9-25.3 30.6-10.1 9.3-20.9 14-32.5 14.3-8.3 0-18.3-2.4-30-7.2s-22.5-7.1-32.3-7.1c-10.3 0-21.4 2.4-33.2 7.1-11.9 4.8-21.4 7.3-28.7 7.5-11.1 0.5-22.2-4.4-33.2-14.7-7.1-6.2-15.9-16.7-26.4-31.6-11.3-16-20.7-34.4-28-55.5-7.8-22.8-11.7-44.8-11.7-66.2 0-24.5 5.3-45.6 15.9-63.2 8.3-14.2 19.4-25.4 33.2-33.6 13.9-8.2 28.8-12.4 44.9-12.7 8.8 0 20.4 2.7 34.8 8.1 14.3 5.4 23.5 8.1 27.6 8.1 3 0 13.2-3.2 30.6-9.6 16.4-5.9 30.2-8.3 41.6-7.4 30.7 2.5 53.8 14.6 69.1 36.4-27.5 16.6-41 39.9-40.8 69.8 0.2 23.3 8.7 42.7 25.3 58.1 7.5 7.1 15.9 12.7 25.3 16.6-2.2 5.9-4.3 11.5-6.6 16.9zm-70.4-277.1c0 18.3-6.7 35.3-20 51.1-16 18.8-35.4 29.6-56.5 27.9-0.3-2.2-0.4-4.5-0.4-6.9 0-17.5 7.6-36.3 21.2-51.6 6.8-7.8 15.4-14.2 25.8-19.4 10.4-5.1 20.3-7.9 29.5-8.4 0.2 2.4 0.4 4.9 0.4 7.3z"/>
  </g>
</svg>
